<svg width="21" height="20" viewBox="0 0 21 20" fill="none" xmlns="http://www.w3.org/2000/svg">
<path d="M17.9238 0H3.07617C1.38011 0 0 1.31439 0 2.92969V17.0703C0 18.6856 1.38011 20 3.07617 20H17.9238C19.6199 20 21 18.6856 21 17.0703V2.92969C21 1.31439 19.6199 0 17.9238 0ZM10.541 15.2344C7.48775 15.2344 5.00391 12.8688 5.00391 9.96094C5.00391 7.05307 7.48775 4.6875 10.541 4.6875C13.5943 4.6875 16.0781 7.05307 16.0781 9.96094C16.0781 12.8688 13.5943 15.2344 10.541 15.2344ZM16.6934 5.85938C15.6757 5.85938 14.8477 5.0708 14.8477 4.10156C14.8477 3.13232 15.6757 2.34375 16.6934 2.34375C17.7111 2.34375 18.5391 3.13232 18.5391 4.10156C18.5391 5.0708 17.7111 5.85938 16.6934 5.85938Z" fill="white"/>
</svg>
